<?xml version="1.0" encoding="utf-8" standalone="no"?>
<!DOCTYPE svg PUBLIC "-//W3C//DTD SVG 1.1//EN"
  "http://www.w3.org/Graphics/SVG/1.1/DTD/svg11.dtd">
<svg xmlns:xlink="http://www.w3.org/1999/xlink" width="720pt" height="360pt" viewBox="0 0 720 360" xmlns="http://www.w3.org/2000/svg" version="1.1">
 <metadata>
  <rdf:RDF xmlns:dc="http://purl.org/dc/elements/1.1/" xmlns:cc="http://creativecommons.org/ns#" xmlns:rdf="http://www.w3.org/1999/02/22-rdf-syntax-ns#">
   <cc:Work>
    <dc:type rdf:resource="http://purl.org/dc/dcmitype/StillImage"/>
    <dc:date>2025-10-21T07:28:56.905794</dc:date>
    <dc:format>image/svg+xml</dc:format>
    <dc:creator>
     <cc:Agent>
      <dc:title>Matplotlib v3.10.3, https://matplotlib.org/</dc:title>
     </cc:Agent>
    </dc:creator>
   </cc:Work>
  </rdf:RDF>
 </metadata>
 <defs>
  <style type="text/css">*{stroke-linejoin: round; stroke-linecap: butt}</style>
 </defs>
 <g id="figure_1">
  <g id="patch_1">
   <path d="M 0 360 
L 720 360 
L 720 0 
L 0 0 
z
" style="fill: #ffffff"/>
  </g>
  <g id="axes_1">
   <g id="patch_2">
    <path d="M 117.44 315.24 
L 702.35 315.24 
L 702.35 10 
L 117.44 10 
z
" style="fill: #ffffff"/>
   </g>
   <g id="matplotlib.axis_1">
    <g id="xtick_1">
     <g id="line2d_1">
      <path d="M 117.44 315.24 
L 117.44 10 
" clip-path="url(#p0ce4e5bdce)" style="fill: none; stroke: #808080; stroke-opacity: 0.5; stroke-width: 0.7; stroke-linecap: square"/>
     </g>
     <g id="line2d_2">
      <defs>
       <path id="m2c2b9149ae" d="M 0 0 
L 0 3.5 
" style="stroke: #000000; stroke-width: 0.8"/>
      </defs>
      <g>
       <use xlink:href="#m2c2b9149ae" x="117.44" y="315.24" style="stroke: #000000; stroke-width: 0.8"/>
      </g>
     </g>
     <g id="text_1">
      <!-- 0 -->
      <g transform="translate(113.6225 331.358125) scale(0.12 -0.12)">
       <defs>
        <path id="DejaVuSans-30" d="M 2034 4250 
Q 1547 4250 1301 3770 
Q 1056 3291 1056 2328 
Q 1056 1369 1301 889 
Q 1547 409 2034 409 
Q 2525 409 2770 889 
Q 3016 1369 3016 2328 
Q 3016 3291 2770 3770 
Q 2525 4250 2034 4250 
z
M 2034 4750 
Q 2819 4750 3233 4129 
Q 3647 3509 3647 2328 
Q 3647 1150 3233 529 
Q 2819 -91 2034 -91 
Q 1250 -91 836 529 
Q 422 1150 422 2328 
Q 422 3509 836 4129 
Q 1250 4750 2034 4750 
z
" transform="scale(0.015625)"/>
       </defs>
       <use xlink:href="#DejaVuSans-30"/>
      </g>
     </g>
    </g>
    <g id="xtick_2">
     <g id="line2d_3">
      <path d="M 234.422 315.24 
L 234.422 10 
" clip-path="url(#p0ce4e5bdce)" style="fill: none; stroke: #808080; stroke-opacity: 0.5; stroke-width: 0.7; stroke-linecap: square"/>
     </g>
     <g id="line2d_4">
      <g>
       <use xlink:href="#m2c2b9149ae" x="234.422" y="315.24" style="stroke: #000000; stroke-width: 0.8"/>
      </g>
     </g>
     <g id="text_2">
      <!-- 10 -->
      <g transform="translate(226.787 331.358125) scale(0.12 -0.12)">
       <defs>
        <path id="DejaVuSans-31" d="M 794 531 
L 1825 531 
L 1825 4091 
L 703 3866 
L 703 4441 
L 1819 4666 
L 2450 4666 
L 2450 531 
L 3481 531 
L 3481 0 
L 794 0 
L 794 531 
z
" transform="scale(0.015625)"/>
       </defs>
       <use xlink:href="#DejaVuSans-31"/>
       <use xlink:href="#DejaVuSans-30" transform="translate(63.623047 0)"/>
      </g>
     </g>
    </g>
    <g id="xtick_3">
     <g id="line2d_5">
      <path d="M 351.404 315.24 
L 351.404 10 
" clip-path="url(#p0ce4e5bdce)" style="fill: none; stroke: #808080; stroke-opacity: 0.5; stroke-width: 0.7; stroke-linecap: square"/>
     </g>
     <g id="line2d_6">
      <g>
       <use xlink:href="#m2c2b9149ae" x="351.404" y="315.24" style="stroke: #000000; stroke-width: 0.8"/>
      </g>
     </g>
     <g id="text_3">
      <!-- 20 -->
      <g transform="translate(343.769 331.358125) scale(0.12 -0.12)">
       <defs>
        <path id="DejaVuSans-32" d="M 1228 531 
L 3431 531 
L 3431 0 
L 469 0 
L 469 531 
Q 828 903 1448 1529 
Q 2069 2156 2228 2338 
Q 2531 2678 2651 2914 
Q 2772 3150 2772 3378 
Q 2772 3750 2511 3984 
Q 2250 4219 1831 4219 
Q 1534 4219 1204 4116 
Q 875 4013 500 3803 
L 500 4441 
Q 881 4594 1212 4672 
Q 1544 4750 1819 4750 
Q 2544 4750 2975 4387 
Q 3406 4025 3406 3419 
Q 3406 3131 3298 2873 
Q 3191 2616 2906 2266 
Q 2828 2175 2409 1742 
Q 1991 1309 1228 531 
z
" transform="scale(0.015625)"/>
       </defs>
       <use xlink:href="#DejaVuSans-32"/>
       <use xlink:href="#DejaVuSans-30" transform="translate(63.623047 0)"/>
      </g>
     </g>
    </g>
    <g id="xtick_4">
     <g id="line2d_7">
      <path d="M 468.386 315.24 
L 468.386 10 
" clip-path="url(#p0ce4e5bdce)" style="fill: none; stroke: #808080; stroke-opacity: 0.5; stroke-width: 0.7; stroke-linecap: square"/>
     </g>
     <g id="line2d_8">
      <g>
       <use xlink:href="#m2c2b9149ae" x="468.386" y="315.24" style="stroke: #000000; stroke-width: 0.8"/>
      </g>
     </g>
     <g id="text_4">
      <!-- 30 -->
      <g transform="translate(460.751 331.358125) scale(0.12 -0.12)">
       <defs>
        <path id="DejaVuSans-33" d="M 2597 2516 
Q 3050 2419 3304 2112 
Q 3559 1806 3559 1356 
Q 3559 666 3084 287 
Q 2609 -91 1734 -91 
Q 1441 -91 1130 -33 
Q 819 25 488 141 
L 488 750 
Q 750 597 1062 519 
Q 1375 441 1716 441 
Q 2309 441 2620 675 
Q 2931 909 2931 1356 
Q 2931 1769 2642 2001 
Q 2353 2234 1838 2234 
L 1294 2234 
L 1294 2753 
L 1863 2753 
Q 2328 2753 2575 2939 
Q 2822 3125 2822 3475 
Q 2822 3834 2567 4026 
Q 2313 4219 1838 4219 
Q 1578 4219 1281 4162 
Q 984 4106 628 3988 
L 628 4550 
Q 988 4650 1302 4700 
Q 1616 4750 1894 4750 
Q 2613 4750 3031 4423 
Q 3450 4097 3450 3541 
Q 3450 3153 3228 2886 
Q 3006 2619 2597 2516 
z
" transform="scale(0.015625)"/>
       </defs>
       <use xlink:href="#DejaVuSans-33"/>
       <use xlink:href="#DejaVuSans-30" transform="translate(63.623047 0)"/>
      </g>
     </g>
    </g>
    <g id="xtick_5">
     <g id="line2d_9">
      <path d="M 585.368 315.24 
L 585.368 10 
" clip-path="url(#p0ce4e5bdce)" style="fill: none; stroke: #808080; stroke-opacity: 0.5; stroke-width: 0.7; stroke-linecap: square"/>
     </g>
     <g id="line2d_10">
      <g>
       <use xlink:href="#m2c2b9149ae" x="585.368" y="315.24" style="stroke: #000000; stroke-width: 0.8"/>
      </g>
     </g>
     <g id="text_5">
      <!-- 40 -->
      <g transform="translate(577.733 331.358125) scale(0.12 -0.12)">
       <defs>
        <path id="DejaVuSans-34" d="M 2419 4116 
L 825 1625 
L 2419 1625 
L 2419 4116 
z
M 2253 4666 
L 3047 4666 
L 3047 1625 
L 3713 1625 
L 3713 1100 
L 3047 1100 
L 3047 0 
L 2419 0 
L 2419 1100 
L 313 1100 
L 313 1709 
L 2253 4666 
z
" transform="scale(0.015625)"/>
       </defs>
       <use xlink:href="#DejaVuSans-34"/>
       <use xlink:href="#DejaVuSans-30" transform="translate(63.623047 0)"/>
      </g>
     </g>
    </g>
    <g id="xtick_6">
     <g id="line2d_11">
      <path d="M 702.35 315.24 
L 702.35 10 
" clip-path="url(#p0ce4e5bdce)" style="fill: none; stroke: #808080; stroke-opacity: 0.5; stroke-width: 0.7; stroke-linecap: square"/>
     </g>
     <g id="line2d_12">
      <g>
       <use xlink:href="#m2c2b9149ae" x="702.35" y="315.24" style="stroke: #000000; stroke-width: 0.8"/>
      </g>
     </g>
     <g id="text_6">
      <!-- 50 -->
      <g transform="translate(694.715 331.358125) scale(0.12 -0.12)">
       <defs>
        <path id="DejaVuSans-35" d="M 691 4666 
L 3169 4666 
L 3169 4134 
L 1269 4134 
L 1269 2991 
Q 1406 3038 1543 3061 
Q 1681 3084 1819 3084 
Q 2600 3084 3056 2656 
Q 3513 2228 3513 1497 
Q 3513 744 3044 326 
Q 2575 -91 1722 -91 
Q 1428 -91 1123 -41 
Q 819 9 494 109 
L 494 744 
Q 775 591 1075 516 
Q 1375 441 1709 441 
Q 2250 441 2565 725 
Q 2881 1009 2881 1497 
Q 2881 1984 2565 2268 
Q 2250 2553 1709 2553 
Q 1456 2553 1204 2497 
Q 953 2441 691 2322 
L 691 4666 
z
" transform="scale(0.015625)"/>
       </defs>
       <use xlink:href="#DejaVuSans-35"/>
       <use xlink:href="#DejaVuSans-30" transform="translate(63.623047 0)"/>
      </g>
     </g>
    </g>
    <g id="text_7">
     <!-- Latency [ms] (lower is better) -->
     <g transform="translate(320.657187 346.971875) scale(0.12 -0.12)">
      <defs>
       <path id="DejaVuSans-4c" d="M 628 4666 
L 1259 4666 
L 1259 531 
L 3531 531 
L 3531 0 
L 628 0 
L 628 4666 
z
" transform="scale(0.015625)"/>
       <path id="DejaVuSans-61" d="M 2194 1759 
Q 1497 1759 1228 1600 
Q 959 1441 959 1056 
Q 959 750 1161 570 
Q 1363 391 1709 391 
Q 2188 391 2477 730 
Q 2766 1069 2766 1631 
L 2766 1759 
L 2194 1759 
z
M 3341 1997 
L 3341 0 
L 2766 0 
L 2766 531 
Q 2569 213 2275 61 
Q 1981 -91 1556 -91 
Q 1019 -91 701 211 
Q 384 513 384 1019 
Q 384 1609 779 1909 
Q 1175 2209 1959 2209 
L 2766 2209 
L 2766 2266 
Q 2766 2663 2505 2880 
Q 2244 3097 1772 3097 
Q 1472 3097 1187 3025 
Q 903 2953 641 2809 
L 641 3341 
Q 956 3463 1253 3523 
Q 1550 3584 1831 3584 
Q 2591 3584 2966 3190 
Q 3341 2797 3341 1997 
z
" transform="scale(0.015625)"/>
       <path id="DejaVuSans-74" d="M 1172 4494 
L 1172 3500 
L 2356 3500 
L 2356 3053 
L 1172 3053 
L 1172 1153 
Q 1172 725 1289 603 
Q 1406 481 1766 481 
L 2356 481 
L 2356 0 
L 1766 0 
Q 1100 0 847 248 
Q 594 497 594 1153 
L 594 3053 
L 172 3053 
L 172 3500 
L 594 3500 
L 594 4494 
L 1172 4494 
z
" transform="scale(0.015625)"/>
       <path id="DejaVuSans-65" d="M 3597 1894 
L 3597 1613 
L 953 1613 
Q 991 1019 1311 708 
Q 1631 397 2203 397 
Q 2534 397 2845 478 
Q 3156 559 3463 722 
L 3463 178 
Q 3153 47 2828 -22 
Q 2503 -91 2169 -91 
Q 1331 -91 842 396 
Q 353 884 353 1716 
Q 353 2575 817 3079 
Q 1281 3584 2069 3584 
Q 2775 3584 3186 3129 
Q 3597 2675 3597 1894 
z
M 3022 2063 
Q 3016 2534 2758 2815 
Q 2500 3097 2075 3097 
Q 1594 3097 1305 2825 
Q 1016 2553 972 2059 
L 3022 2063 
z
" transform="scale(0.015625)"/>
       <path id="DejaVuSans-6e" d="M 3513 2113 
L 3513 0 
L 2938 0 
L 2938 2094 
Q 2938 2591 2744 2837 
Q 2550 3084 2163 3084 
Q 1697 3084 1428 2787 
Q 1159 2491 1159 1978 
L 1159 0 
L 581 0 
L 581 3500 
L 1159 3500 
L 1159 2956 
Q 1366 3272 1645 3428 
Q 1925 3584 2291 3584 
Q 2894 3584 3203 3211 
Q 3513 2838 3513 2113 
z
" transform="scale(0.015625)"/>
       <path id="DejaVuSans-63" d="M 3122 3366 
L 3122 2828 
Q 2878 2963 2633 3030 
Q 2388 3097 2138 3097 
Q 1578 3097 1268 2742 
Q 959 2388 959 1747 
Q 959 1106 1268 751 
Q 1578 397 2138 397 
Q 2388 397 2633 464 
Q 2878 531 3122 666 
L 3122 134 
Q 2881 22 2623 -34 
Q 2366 -91 2075 -91 
Q 1284 -91 818 406 
Q 353 903 353 1747 
Q 353 2603 823 3093 
Q 1294 3584 2113 3584 
Q 2378 3584 2631 3529 
Q 2884 3475 3122 3366 
z
" transform="scale(0.015625)"/>
       <path id="DejaVuSans-79" d="M 2059 -325 
Q 1816 -950 1584 -1140 
Q 1353 -1331 966 -1331 
L 506 -1331 
L 506 -850 
L 844 -850 
Q 1081 -850 1212 -737 
Q 1344 -625 1503 -206 
L 1606 56 
L 191 3500 
L 800 3500 
L 1894 763 
L 2988 3500 
L 3597 3500 
L 2059 -325 
z
" transform="scale(0.015625)"/>
       <path id="DejaVuSans-20" transform="scale(0.015625)"/>
       <path id="DejaVuSans-5b" d="M 550 4863 
L 1875 4863 
L 1875 4416 
L 1125 4416 
L 1125 -397 
L 1875 -397 
L 1875 -844 
L 550 -844 
L 550 4863 
z
" transform="scale(0.015625)"/>
       <path id="DejaVuSans-6d" d="M 3328 2828 
Q 3544 3216 3844 3400 
Q 4144 3584 4550 3584 
Q 5097 3584 5394 3201 
Q 5691 2819 5691 2113 
L 5691 0 
L 5113 0 
L 5113 2094 
Q 5113 2597 4934 2840 
Q 4756 3084 4391 3084 
Q 3944 3084 3684 2787 
Q 3425 2491 3425 1978 
L 3425 0 
L 2847 0 
L 2847 2094 
Q 2847 2600 2669 2842 
Q 2491 3084 2119 3084 
Q 1678 3084 1418 2786 
Q 1159 2488 1159 1978 
L 1159 0 
L 581 0 
L 581 3500 
L 1159 3500 
L 1159 2956 
Q 1356 3278 1631 3431 
Q 1906 3584 2284 3584 
Q 2666 3584 2933 3390 
Q 3200 3197 3328 2828 
z
" transform="scale(0.015625)"/>
       <path id="DejaVuSans-73" d="M 2834 3397 
L 2834 2853 
Q 2591 2978 2328 3040 
Q 2066 3103 1784 3103 
Q 1356 3103 1142 2972 
Q 928 2841 928 2578 
Q 928 2378 1081 2264 
Q 1234 2150 1697 2047 
L 1894 2003 
Q 2506 1872 2764 1633 
Q 3022 1394 3022 966 
Q 3022 478 2636 193 
Q 2250 -91 1575 -91 
Q 1294 -91 989 -36 
Q 684 19 347 128 
L 347 722 
Q 666 556 975 473 
Q 1284 391 1588 391 
Q 1994 391 2212 530 
Q 2431 669 2431 922 
Q 2431 1156 2273 1281 
Q 2116 1406 1581 1522 
L 1381 1569 
Q 847 1681 609 1914 
Q 372 2147 372 2553 
Q 372 3047 722 3315 
Q 1072 3584 1716 3584 
Q 2034 3584 2315 3537 
Q 2597 3491 2834 3397 
z
" transform="scale(0.015625)"/>
       <path id="DejaVuSans-5d" d="M 1947 4863 
L 1947 -844 
L 622 -844 
L 622 -397 
L 1369 -397 
L 1369 4416 
L 622 4416 
L 622 4863 
L 1947 4863 
z
" transform="scale(0.015625)"/>
       <path id="DejaVuSans-28" d="M 1984 4856 
Q 1566 4138 1362 3434 
Q 1159 2731 1159 2009 
Q 1159 1288 1364 580 
Q 1569 -128 1984 -844 
L 1484 -844 
Q 1016 -109 783 600 
Q 550 1309 550 2009 
Q 550 2706 781 3412 
Q 1013 4119 1484 4856 
L 1984 4856 
z
" transform="scale(0.015625)"/>
       <path id="DejaVuSans-6c" d="M 603 4863 
L 1178 4863 
L 1178 0 
L 603 0 
L 603 4863 
z
" transform="scale(0.015625)"/>
       <path id="DejaVuSans-6f" d="M 1959 3097 
Q 1497 3097 1228 2736 
Q 959 2375 959 1747 
Q 959 1119 1226 758 
Q 1494 397 1959 397 
Q 2419 397 2687 759 
Q 2956 1122 2956 1747 
Q 2956 2369 2687 2733 
Q 2419 3097 1959 3097 
z
M 1959 3584 
Q 2709 3584 3137 3096 
Q 3566 2609 3566 1747 
Q 3566 888 3137 398 
Q 2709 -91 1959 -91 
Q 1206 -91 779 398 
Q 353 888 353 1747 
Q 353 2609 779 3096 
Q 1206 3584 1959 3584 
z
" transform="scale(0.015625)"/>
       <path id="DejaVuSans-77" d="M 269 3500 
L 844 3500 
L 1563 769 
L 2278 3500 
L 2956 3500 
L 3675 769 
L 4391 3500 
L 4966 3500 
L 4050 0 
L 3372 0 
L 2619 2869 
L 1863 0 
L 1184 0 
L 269 3500 
z
" transform="scale(0.015625)"/>
       <path id="DejaVuSans-72" d="M 2631 2963 
Q 2534 3019 2420 3045 
Q 2306 3072 2169 3072 
Q 1681 3072 1420 2755 
Q 1159 2438 1159 1844 
L 1159 0 
L 581 0 
L 581 3500 
L 1159 3500 
L 1159 2956 
Q 1341 3275 1631 3429 
Q 1922 3584 2338 3584 
Q 2397 3584 2469 3576 
Q 2541 3569 2628 3553 
L 2631 2963 
z
" transform="scale(0.015625)"/>
       <path id="DejaVuSans-69" d="M 603 3500 
L 1178 3500 
L 1178 0 
L 603 0 
L 603 3500 
z
M 603 4863 
L 1178 4863 
L 1178 4134 
L 603 4134 
L 603 4863 
z
" transform="scale(0.015625)"/>
       <path id="DejaVuSans-62" d="M 3116 1747 
Q 3116 2381 2855 2742 
Q 2594 3103 2138 3103 
Q 1681 3103 1420 2742 
Q 1159 2381 1159 1747 
Q 1159 1113 1420 752 
Q 1681 391 2138 391 
Q 2594 391 2855 752 
Q 3116 1113 3116 1747 
z
M 1159 2969 
Q 1341 3281 1617 3432 
Q 1894 3584 2278 3584 
Q 2916 3584 3314 3078 
Q 3713 2572 3713 1747 
Q 3713 922 3314 415 
Q 2916 -91 2278 -91 
Q 1894 -91 1617 61 
Q 1341 213 1159 525 
L 1159 0 
L 581 0 
L 581 4863 
L 1159 4863 
L 1159 2969 
z
" transform="scale(0.015625)"/>
       <path id="DejaVuSans-29" d="M 513 4856 
L 1013 4856 
Q 1481 4119 1714 3412 
Q 1947 2706 1947 2009 
Q 1947 1309 1714 600 
Q 1481 -109 1013 -844 
L 513 -844 
Q 928 -128 1133 580 
Q 1338 1288 1338 2009 
Q 1338 2731 1133 3434 
Q 928 4138 513 4856 
z
" transform="scale(0.015625)"/>
      </defs>
      <use xlink:href="#DejaVuSans-4c"/>
      <use xlink:href="#DejaVuSans-61" transform="translate(55.712891 0)"/>
      <use xlink:href="#DejaVuSans-74" transform="translate(116.992188 0)"/>
      <use xlink:href="#DejaVuSans-65" transform="translate(156.201172 0)"/>
      <use xlink:href="#DejaVuSans-6e" transform="translate(217.724609 0)"/>
      <use xlink:href="#DejaVuSans-63" transform="translate(281.103516 0)"/>
      <use xlink:href="#DejaVuSans-79" transform="translate(336.083984 0)"/>
      <use xlink:href="#DejaVuSans-20" transform="translate(395.263672 0)"/>
      <use xlink:href="#DejaVuSans-5b" transform="translate(427.050781 0)"/>
      <use xlink:href="#DejaVuSans-6d" transform="translate(466.064453 0)"/>
      <use xlink:href="#DejaVuSans-73" transform="translate(563.476562 0)"/>
      <use xlink:href="#DejaVuSans-5d" transform="translate(615.576172 0)"/>
      <use xlink:href="#DejaVuSans-20" transform="translate(654.589844 0)"/>
      <use xlink:href="#DejaVuSans-28" transform="translate(686.376953 0)"/>
      <use xlink:href="#DejaVuSans-6c" transform="translate(725.390625 0)"/>
      <use xlink:href="#DejaVuSans-6f" transform="translate(753.173828 0)"/>
      <use xlink:href="#DejaVuSans-77" transform="translate(814.355469 0)"/>
      <use xlink:href="#DejaVuSans-65" transform="translate(896.142578 0)"/>
      <use xlink:href="#DejaVuSans-72" transform="translate(957.666016 0)"/>
      <use xlink:href="#DejaVuSans-20" transform="translate(998.779297 0)"/>
      <use xlink:href="#DejaVuSans-69" transform="translate(1030.566406 0)"/>
      <use xlink:href="#DejaVuSans-73" transform="translate(1058.349609 0)"/>
      <use xlink:href="#DejaVuSans-20" transform="translate(1110.449219 0)"/>
      <use xlink:href="#DejaVuSans-62" transform="translate(1142.236328 0)"/>
      <use xlink:href="#DejaVuSans-65" transform="translate(1205.712891 0)"/>
      <use xlink:href="#DejaVuSans-74" transform="translate(1267.236328 0)"/>
      <use xlink:href="#DejaVuSans-74" transform="translate(1306.445312 0)"/>
      <use xlink:href="#DejaVuSans-65" transform="translate(1345.654297 0)"/>
      <use xlink:href="#DejaVuSans-72" transform="translate(1407.177734 0)"/>
      <use xlink:href="#DejaVuSans-29" transform="translate(1448.291016 0)"/>
     </g>
    </g>
   </g>
   <g id="matplotlib.axis_2">
    <g id="ytick_1">
     <g id="line2d_13">
      <defs>
       <path id="m36a9114306" d="M 0 0 
L -3.5 0 
" style="stroke: #000000; stroke-width: 0.8"/>
      </defs>
      <g>
       <use xlink:href="#m36a9114306" x="117.44" y="296.1625" style="stroke: #000000; stroke-width: 0.8"/>
      </g>
     </g>
     <g id="text_8">
      <!-- linkerd -->
      <g transform="translate(69.92875 300.721563) scale(0.12 -0.12)">
       <defs>
        <path id="DejaVuSans-6b" d="M 581 4863 
L 1159 4863 
L 1159 1991 
L 2875 3500 
L 3609 3500 
L 1753 1863 
L 3688 0 
L 2938 0 
L 1159 1709 
L 1159 0 
L 581 0 
L 581 4863 
z
" transform="scale(0.015625)"/>
        <path id="DejaVuSans-64" d="M 2906 2969 
L 2906 4863 
L 3481 4863 
L 3481 0 
L 2906 0 
L 2906 525 
Q 2725 213 2448 61 
Q 2172 -91 1784 -91 
Q 1150 -91 751 415 
Q 353 922 353 1747 
Q 353 2572 751 3078 
Q 1150 3584 1784 3584 
Q 2172 3584 2448 3432 
Q 2725 3281 2906 2969 
z
M 947 1747 
Q 947 1113 1208 752 
Q 1469 391 1925 391 
Q 2381 391 2643 752 
Q 2906 1113 2906 1747 
Q 2906 2381 2643 2742 
Q 2381 3103 1925 3103 
Q 1469 3103 1208 2742 
Q 947 2381 947 1747 
z
" transform="scale(0.015625)"/>
       </defs>
       <use xlink:href="#DejaVuSans-6c"/>
       <use xlink:href="#DejaVuSans-69" transform="translate(27.783203 0)"/>
       <use xlink:href="#DejaVuSans-6e" transform="translate(55.566406 0)"/>
       <use xlink:href="#DejaVuSans-6b" transform="translate(118.945312 0)"/>
       <use xlink:href="#DejaVuSans-65" transform="translate(173.230469 0)"/>
       <use xlink:href="#DejaVuSans-72" transform="translate(234.753906 0)"/>
       <use xlink:href="#DejaVuSans-64" transform="translate(274.117188 0)"/>
      </g>
     </g>
    </g>
    <g id="ytick_2">
     <g id="line2d_14">
      <g>
       <use xlink:href="#m36a9114306" x="117.44" y="258.0075" style="stroke: #000000; stroke-width: 0.8"/>
      </g>
     </g>
     <g id="text_9">
      <!-- istio-sidecar -->
      <g transform="translate(37.448125 262.566563) scale(0.12 -0.12)">
       <defs>
        <path id="DejaVuSans-2d" d="M 313 2009 
L 1997 2009 
L 1997 1497 
L 313 1497 
L 313 2009 
z
" transform="scale(0.015625)"/>
       </defs>
       <use xlink:href="#DejaVuSans-69"/>
       <use xlink:href="#DejaVuSans-73" transform="translate(27.783203 0)"/>
       <use xlink:href="#DejaVuSans-74" transform="translate(79.882812 0)"/>
       <use xlink:href="#DejaVuSans-69" transform="translate(119.091797 0)"/>
       <use xlink:href="#DejaVuSans-6f" transform="translate(146.875 0)"/>
       <use xlink:href="#DejaVuSans-2d" transform="translate(209.931641 0)"/>
       <use xlink:href="#DejaVuSans-73" transform="translate(246.015625 0)"/>
       <use xlink:href="#DejaVuSans-69" transform="translate(298.115234 0)"/>
       <use xlink:href="#DejaVuSans-64" transform="translate(325.898438 0)"/>
       <use xlink:href="#DejaVuSans-65" transform="translate(389.375 0)"/>
       <use xlink:href="#DejaVuSans-63" transform="translate(450.898438 0)"/>
       <use xlink:href="#DejaVuSans-61" transform="translate(505.878906 0)"/>
       <use xlink:href="#DejaVuSans-72" transform="translate(567.158203 0)"/>
      </g>
     </g>
    </g>
    <g id="ytick_3">
     <g id="line2d_15">
      <g>
       <use xlink:href="#m36a9114306" x="117.44" y="219.8525" style="stroke: #000000; stroke-width: 0.8"/>
      </g>
     </g>
     <g id="text_10">
      <!-- istio-ambient -->
      <g transform="translate(31.2325 224.411563) scale(0.12 -0.12)">
       <use xlink:href="#DejaVuSans-69"/>
       <use xlink:href="#DejaVuSans-73" transform="translate(27.783203 0)"/>
       <use xlink:href="#DejaVuSans-74" transform="translate(79.882812 0)"/>
       <use xlink:href="#DejaVuSans-69" transform="translate(119.091797 0)"/>
       <use xlink:href="#DejaVuSans-6f" transform="translate(146.875 0)"/>
       <use xlink:href="#DejaVuSans-2d" transform="translate(209.931641 0)"/>
       <use xlink:href="#DejaVuSans-61" transform="translate(246.015625 0)"/>
       <use xlink:href="#DejaVuSans-6d" transform="translate(307.294922 0)"/>
       <use xlink:href="#DejaVuSans-62" transform="translate(404.707031 0)"/>
       <use xlink:href="#DejaVuSans-69" transform="translate(468.183594 0)"/>
       <use xlink:href="#DejaVuSans-65" transform="translate(495.966797 0)"/>
       <use xlink:href="#DejaVuSans-6e" transform="translate(557.490234 0)"/>
       <use xlink:href="#DejaVuSans-74" transform="translate(620.869141 0)"/>
      </g>
     </g>
    </g>
    <g id="ytick_4">
     <g id="line2d_16">
      <g>
       <use xlink:href="#m36a9114306" x="117.44" y="181.6975" style="stroke: #000000; stroke-width: 0.8"/>
      </g>
     </g>
     <g id="text_11">
      <!-- cilium-wireguard -->
      <g transform="translate(10.105 186.256563) scale(0.12 -0.12)">
       <defs>
        <path id="DejaVuSans-75" d="M 544 1381 
L 544 3500 
L 1119 3500 
L 1119 1403 
Q 1119 906 1312 657 
Q 1506 409 1894 409 
Q 2359 409 2629 706 
Q 2900 1003 2900 1516 
L 2900 3500 
L 3475 3500 
L 3475 0 
L 2900 0 
L 2900 538 
Q 2691 219 2414 64 
Q 2138 -91 1772 -91 
Q 1169 -91 856 284 
Q 544 659 544 1381 
z
M 1991 3584 
L 1991 3584 
z
" transform="scale(0.015625)"/>
        <path id="DejaVuSans-67" d="M 2906 1791 
Q 2906 2416 2648 2759 
Q 2391 3103 1925 3103 
Q 1463 3103 1205 2759 
Q 947 2416 947 1791 
Q 947 1169 1205 825 
Q 1463 481 1925 481 
Q 2391 481 2648 825 
Q 2906 1169 2906 1791 
z
M 3481 434 
Q 3481 -459 3084 -895 
Q 2688 -1331 1869 -1331 
Q 1566 -1331 1297 -1286 
Q 1028 -1241 775 -1147 
L 775 -588 
Q 1028 -725 1275 -790 
Q 1522 -856 1778 -856 
Q 2344 -856 2625 -561 
Q 2906 -266 2906 331 
L 2906 616 
Q 2728 306 2450 153 
Q 2172 0 1784 0 
Q 1141 0 747 490 
Q 353 981 353 1791 
Q 353 2603 747 3093 
Q 1141 3584 1784 3584 
Q 2172 3584 2450 3431 
Q 2728 3278 2906 2969 
L 2906 3500 
L 3481 3500 
L 3481 434 
z
" transform="scale(0.015625)"/>
       </defs>
       <use xlink:href="#DejaVuSans-63"/>
       <use xlink:href="#DejaVuSans-69" transform="translate(54.980469 0)"/>
       <use xlink:href="#DejaVuSans-6c" transform="translate(82.763672 0)"/>
       <use xlink:href="#DejaVuSans-69" transform="translate(110.546875 0)"/>
       <use xlink:href="#DejaVuSans-75" transform="translate(138.330078 0)"/>
       <use xlink:href="#DejaVuSans-6d" transform="translate(201.708984 0)"/>
       <use xlink:href="#DejaVuSans-2d" transform="translate(299.121094 0)"/>
       <use xlink:href="#DejaVuSans-77" transform="translate(335.205078 0)"/>
       <use xlink:href="#DejaVuSans-69" transform="translate(416.992188 0)"/>
       <use xlink:href="#DejaVuSans-72" transform="translate(444.775391 0)"/>
       <use xlink:href="#DejaVuSans-65" transform="translate(483.638672 0)"/>
       <use xlink:href="#DejaVuSans-67" transform="translate(545.162109 0)"/>
       <use xlink:href="#DejaVuSans-75" transform="translate(608.638672 0)"/>
       <use xlink:href="#DejaVuSans-61" transform="translate(672.017578 0)"/>
       <use xlink:href="#DejaVuSans-72" transform="translate(733.296875 0)"/>
       <use xlink:href="#DejaVuSans-64" transform="translate(772.660156 0)"/>
      </g>
     </g>
    </g>
    <g id="ytick_5">
     <g id="line2d_17">
      <g>
       <use xlink:href="#m36a9114306" x="117.44" y="143.5425" style="stroke: #000000; stroke-width: 0.8"/>
      </g>
     </g>
     <g id="text_12">
      <!-- cilium-ipsec -->
      <g transform="translate(39.0325 148.101563) scale(0.12 -0.12)">
       <defs>
        <path id="DejaVuSans-70" d="M 1159 525 
L 1159 -1331 
L 581 -1331 
L 581 3500 
L 1159 3500 
L 1159 2969 
Q 1341 3281 1617 3432 
Q 1894 3584 2278 3584 
Q 2916 3584 3314 3078 
Q 3713 2572 3713 1747 
Q 3713 922 3314 415 
Q 2916 -91 2278 -91 
Q 1894 -91 1617 61 
Q 1341 213 1159 525 
z
M 3116 1747 
Q 3116 2381 2855 2742 
Q 2594 3103 2138 3103 
Q 1681 3103 1420 2742 
Q 1159 2381 1159 1747 
Q 1159 1113 1420 752 
Q 1681 391 2138 391 
Q 2594 391 2855 752 
Q 3116 1113 3116 1747 
z
" transform="scale(0.015625)"/>
       </defs>
       <use xlink:href="#DejaVuSans-63"/>
       <use xlink:href="#DejaVuSans-69" transform="translate(54.980469 0)"/>
       <use xlink:href="#DejaVuSans-6c" transform="translate(82.763672 0)"/>
       <use xlink:href="#DejaVuSans-69" transform="translate(110.546875 0)"/>
       <use xlink:href="#DejaVuSans-75" transform="translate(138.330078 0)"/>
       <use xlink:href="#DejaVuSans-6d" transform="translate(201.708984 0)"/>
       <use xlink:href="#DejaVuSans-2d" transform="translate(299.121094 0)"/>
       <use xlink:href="#DejaVuSans-69" transform="translate(335.205078 0)"/>
       <use xlink:href="#DejaVuSans-70" transform="translate(362.988281 0)"/>
       <use xlink:href="#DejaVuSans-73" transform="translate(426.464844 0)"/>
       <use xlink:href="#DejaVuSans-65" transform="translate(478.564453 0)"/>
       <use xlink:href="#DejaVuSans-63" transform="translate(540.087891 0)"/>
      </g>
     </g>
    </g>
    <g id="ytick_6">
     <g id="line2d_18">
      <g>
       <use xlink:href="#m36a9114306" x="117.44" y="105.3875" style="stroke: #000000; stroke-width: 0.8"/>
      </g>
     </g>
     <g id="text_13">
      <!-- cilium-none -->
      <g transform="translate(40.28125 109.946563) scale(0.12 -0.12)">
       <use xlink:href="#DejaVuSans-63"/>
       <use xlink:href="#DejaVuSans-69" transform="translate(54.980469 0)"/>
       <use xlink:href="#DejaVuSans-6c" transform="translate(82.763672 0)"/>
       <use xlink:href="#DejaVuSans-69" transform="translate(110.546875 0)"/>
       <use xlink:href="#DejaVuSans-75" transform="translate(138.330078 0)"/>
       <use xlink:href="#DejaVuSans-6d" transform="translate(201.708984 0)"/>
       <use xlink:href="#DejaVuSans-2d" transform="translate(299.121094 0)"/>
       <use xlink:href="#DejaVuSans-6e" transform="translate(335.205078 0)"/>
       <use xlink:href="#DejaVuSans-6f" transform="translate(398.583984 0)"/>
       <use xlink:href="#DejaVuSans-6e" transform="translate(459.765625 0)"/>
       <use xlink:href="#DejaVuSans-65" transform="translate(523.144531 0)"/>
      </g>
     </g>
    </g>
    <g id="ytick_7">
     <g id="line2d_19">
      <g>
       <use xlink:href="#m36a9114306" x="117.44" y="67.2325" style="stroke: #000000; stroke-width: 0.8"/>
      </g>
     </g>
     <g id="text_14">
      <!-- load-balancer -->
      <g transform="translate(28.283125 71.791562) scale(0.12 -0.12)">
       <use xlink:href="#DejaVuSans-6c"/>
       <use xlink:href="#DejaVuSans-6f" transform="translate(27.783203 0)"/>
       <use xlink:href="#DejaVuSans-61" transform="translate(88.964844 0)"/>
       <use xlink:href="#DejaVuSans-64" transform="translate(150.244141 0)"/>
       <use xlink:href="#DejaVuSans-2d" transform="translate(213.720703 0)"/>
       <use xlink:href="#DejaVuSans-62" transform="translate(249.804688 0)"/>
       <use xlink:href="#DejaVuSans-61" transform="translate(313.28125 0)"/>
       <use xlink:href="#DejaVuSans-6c" transform="translate(374.560547 0)"/>
       <use xlink:href="#DejaVuSans-61" transform="translate(402.34375 0)"/>
       <use xlink:href="#DejaVuSans-6e" transform="translate(463.623047 0)"/>
       <use xlink:href="#DejaVuSans-63" transform="translate(527.001953 0)"/>
       <use xlink:href="#DejaVuSans-65" transform="translate(581.982422 0)"/>
       <use xlink:href="#DejaVuSans-72" transform="translate(643.505859 0)"/>
      </g>
     </g>
    </g>
    <g id="ytick_8">
     <g id="line2d_20">
      <g>
       <use xlink:href="#m36a9114306" x="117.44" y="29.0775" style="stroke: #000000; stroke-width: 0.8"/>
      </g>
     </g>
     <g id="text_15">
      <!-- same-cluster -->
      <g transform="translate(32.62375 33.636562) scale(0.12 -0.12)">
       <use xlink:href="#DejaVuSans-73"/>
       <use xlink:href="#DejaVuSans-61" transform="translate(52.099609 0)"/>
       <use xlink:href="#DejaVuSans-6d" transform="translate(113.378906 0)"/>
       <use xlink:href="#DejaVuSans-65" transform="translate(210.791016 0)"/>
       <use xlink:href="#DejaVuSans-2d" transform="translate(272.314453 0)"/>
       <use xlink:href="#DejaVuSans-63" transform="translate(308.398438 0)"/>
       <use xlink:href="#DejaVuSans-6c" transform="translate(363.378906 0)"/>
       <use xlink:href="#DejaVuSans-75" transform="translate(391.162109 0)"/>
       <use xlink:href="#DejaVuSans-73" transform="translate(454.541016 0)"/>
       <use xlink:href="#DejaVuSans-74" transform="translate(506.640625 0)"/>
       <use xlink:href="#DejaVuSans-65" transform="translate(545.849609 0)"/>
       <use xlink:href="#DejaVuSans-72" transform="translate(607.373047 0)"/>
      </g>
     </g>
    </g>
   </g>
   <g id="patch_3">
    <path d="M 424.897942 311.4245 
L 424.897942 280.9005 
L 461.747271 280.9005 
L 461.747271 311.4245 
L 424.897942 311.4245 
z
" clip-path="url(#p0ce4e5bdce)" style="fill: #aa4499; stroke: #000000; stroke-linejoin: miter"/>
   </g>
   <g id="line2d_21">
    <path d="M 424.897942 296.1625 
L 420.189416 296.1625 
" clip-path="url(#p0ce4e5bdce)" style="fill: none; stroke: #000000; stroke-linecap: square"/>
   </g>
   <g id="line2d_22">
    <path d="M 461.747271 296.1625 
L 503.012672 296.1625 
" clip-path="url(#p0ce4e5bdce)" style="fill: none; stroke: #000000; stroke-linecap: square"/>
   </g>
   <g id="line2d_23">
    <path d="M 420.189416 303.7935 
L 420.189416 288.5315 
" clip-path="url(#p0ce4e5bdce)" style="fill: none; stroke: #000000; stroke-linecap: square"/>
   </g>
   <g id="line2d_24">
    <path d="M 503.012672 303.7935 
L 503.012672 288.5315 
" clip-path="url(#p0ce4e5bdce)" style="fill: none; stroke: #000000; stroke-linecap: square"/>
   </g>
   <g id="patch_4">
    <path d="M 561.415936 273.2695 
L 561.415936 242.7455 
L 588.497269 242.7455 
L 588.497269 273.2695 
L 561.415936 273.2695 
z
" clip-path="url(#p0ce4e5bdce)" style="fill: #cc6677; stroke: #000000; stroke-linejoin: miter"/>
   </g>
   <g id="line2d_25">
    <path d="M 561.415936 258.0075 
L 541.49975 258.0075 
" clip-path="url(#p0ce4e5bdce)" style="fill: none; stroke: #000000; stroke-linecap: square"/>
   </g>
   <g id="line2d_26">
    <path d="M 588.497269 258.0075 
L 599.40584 258.0075 
" clip-path="url(#p0ce4e5bdce)" style="fill: none; stroke: #000000; stroke-linecap: square"/>
   </g>
   <g id="line2d_27">
    <path d="M 541.49975 265.6385 
L 541.49975 250.3765 
" clip-path="url(#p0ce4e5bdce)" style="fill: none; stroke: #000000; stroke-linecap: square"/>
   </g>
   <g id="line2d_28">
    <path d="M 599.40584 265.6385 
L 599.40584 250.3765 
" clip-path="url(#p0ce4e5bdce)" style="fill: none; stroke: #000000; stroke-linecap: square"/>
   </g>
   <g id="patch_5">
    <path d="M 223.220974 235.1145 
L 223.220974 204.5905 
L 230.152157 204.5905 
L 230.152157 235.1145 
L 223.220974 235.1145 
z
" clip-path="url(#p0ce4e5bdce)" style="fill: #aa3377; stroke: #000000; stroke-linejoin: miter"/>
   </g>
   <g id="line2d_29">
    <path d="M 223.220974 219.8525 
L 220.735106 219.8525 
" clip-path="url(#p0ce4e5bdce)" style="fill: none; stroke: #000000; stroke-linecap: square"/>
   </g>
   <g id="line2d_30">
    <path d="M 230.152157 219.8525 
L 237.580514 219.8525 
" clip-path="url(#p0ce4e5bdce)" style="fill: none; stroke: #000000; stroke-linecap: square"/>
   </g>
   <g id="line2d_31">
    <path d="M 220.735106 227.4835 
L 220.735106 212.2215 
" clip-path="url(#p0ce4e5bdce)" style="fill: none; stroke: #000000; stroke-linecap: square"/>
   </g>
   <g id="line2d_32">
    <path d="M 237.580514 227.4835 
L 237.580514 212.2215 
" clip-path="url(#p0ce4e5bdce)" style="fill: none; stroke: #000000; stroke-linecap: square"/>
   </g>
   <g id="patch_6">
    <path d="M 206.375565 196.9595 
L 206.375565 166.4355 
L 211.61051 166.4355 
L 211.61051 196.9595 
L 206.375565 196.9595 
z
" clip-path="url(#p0ce4e5bdce)" style="fill: #ddcc77; stroke: #000000; stroke-linejoin: miter"/>
   </g>
   <g id="line2d_33">
    <path d="M 206.375565 181.6975 
L 204.00668 181.6975 
" clip-path="url(#p0ce4e5bdce)" style="fill: none; stroke: #000000; stroke-linecap: square"/>
   </g>
   <g id="line2d_34">
    <path d="M 211.61051 181.6975 
L 216.757718 181.6975 
" clip-path="url(#p0ce4e5bdce)" style="fill: none; stroke: #000000; stroke-linecap: square"/>
   </g>
   <g id="line2d_35">
    <path d="M 204.00668 189.3285 
L 204.00668 174.0665 
" clip-path="url(#p0ce4e5bdce)" style="fill: none; stroke: #000000; stroke-linecap: square"/>
   </g>
   <g id="line2d_36">
    <path d="M 216.757718 189.3285 
L 216.757718 174.0665 
" clip-path="url(#p0ce4e5bdce)" style="fill: none; stroke: #000000; stroke-linecap: square"/>
   </g>
   <g id="patch_7">
    <path d="M 263.111836 158.8045 
L 263.111836 128.2805 
L 271.680767 128.2805 
L 271.680767 158.8045 
L 263.111836 158.8045 
z
" clip-path="url(#p0ce4e5bdce)" style="fill: #88ccee; stroke: #000000; stroke-linejoin: miter"/>
   </g>
   <g id="line2d_37">
    <path d="M 263.111836 143.5425 
L 254.542904 143.5425 
" clip-path="url(#p0ce4e5bdce)" style="fill: none; stroke: #000000; stroke-linecap: square"/>
   </g>
   <g id="line2d_38">
    <path d="M 271.680767 143.5425 
L 282.501602 143.5425 
" clip-path="url(#p0ce4e5bdce)" style="fill: none; stroke: #000000; stroke-linecap: square"/>
   </g>
   <g id="line2d_39">
    <path d="M 254.542904 151.1735 
L 254.542904 135.9115 
" clip-path="url(#p0ce4e5bdce)" style="fill: none; stroke: #000000; stroke-linecap: square"/>
   </g>
   <g id="line2d_40">
    <path d="M 282.501602 151.1735 
L 282.501602 135.9115 
" clip-path="url(#p0ce4e5bdce)" style="fill: none; stroke: #000000; stroke-linecap: square"/>
   </g>
   <g id="patch_8">
    <path d="M 138.262796 120.6495 
L 138.262796 90.1255 
L 138.379778 90.1255 
L 138.379778 120.6495 
L 138.262796 120.6495 
z
" clip-path="url(#p0ce4e5bdce)" style="fill: #44aa99; stroke: #000000; stroke-linejoin: miter"/>
   </g>
   <g id="line2d_41">
    <path d="M 138.262796 105.3875 
L 138.262796 105.3875 
" clip-path="url(#p0ce4e5bdce)" style="fill: none; stroke: #000000; stroke-linecap: square"/>
   </g>
   <g id="line2d_42">
    <path d="M 138.379778 105.3875 
L 138.379778 105.3875 
" clip-path="url(#p0ce4e5bdce)" style="fill: none; stroke: #000000; stroke-linecap: square"/>
   </g>
   <g id="line2d_43">
    <path d="M 138.262796 113.0185 
L 138.262796 97.7565 
" clip-path="url(#p0ce4e5bdce)" style="fill: none; stroke: #000000; stroke-linecap: square"/>
   </g>
   <g id="line2d_44">
    <path d="M 138.379778 113.0185 
L 138.379778 97.7565 
" clip-path="url(#p0ce4e5bdce)" style="fill: none; stroke: #000000; stroke-linecap: square"/>
   </g>
   <g id="patch_9">
    <path d="M 137.443922 82.4945 
L 137.443922 51.9705 
L 137.560904 51.9705 
L 137.560904 82.4945 
L 137.443922 82.4945 
z
" clip-path="url(#p0ce4e5bdce)" style="fill: #117733; stroke: #000000; stroke-linejoin: miter"/>
   </g>
   <g id="line2d_45">
    <path d="M 137.443922 67.2325 
L 137.443922 67.2325 
" clip-path="url(#p0ce4e5bdce)" style="fill: none; stroke: #000000; stroke-linecap: square"/>
   </g>
   <g id="line2d_46">
    <path d="M 137.560904 67.2325 
L 137.677886 67.2325 
" clip-path="url(#p0ce4e5bdce)" style="fill: none; stroke: #000000; stroke-linecap: square"/>
   </g>
   <g id="line2d_47">
    <path d="M 137.443922 74.8635 
L 137.443922 59.6015 
" clip-path="url(#p0ce4e5bdce)" style="fill: none; stroke: #000000; stroke-linecap: square"/>
   </g>
   <g id="line2d_48">
    <path d="M 137.677886 74.8635 
L 137.677886 59.6015 
" clip-path="url(#p0ce4e5bdce)" style="fill: none; stroke: #000000; stroke-linecap: square"/>
   </g>
   <g id="patch_10">
    <path d="M 132.91087 44.3395 
L 132.91087 13.8155 
L 133.23257 13.8155 
L 133.23257 44.3395 
L 132.91087 44.3395 
z
" clip-path="url(#p0ce4e5bdce)" style="fill: #332288; stroke: #000000; stroke-linejoin: miter"/>
   </g>
   <g id="line2d_49">
    <path d="M 132.91087 29.0775 
L 132.764642 29.0775 
" clip-path="url(#p0ce4e5bdce)" style="fill: none; stroke: #000000; stroke-linecap: square"/>
   </g>
   <g id="line2d_50">
    <path d="M 133.23257 29.0775 
L 133.23257 29.0775 
" clip-path="url(#p0ce4e5bdce)" style="fill: none; stroke: #000000; stroke-linecap: square"/>
   </g>
   <g id="line2d_51">
    <path d="M 132.764642 36.7085 
L 132.764642 21.4465 
" clip-path="url(#p0ce4e5bdce)" style="fill: none; stroke: #000000; stroke-linecap: square"/>
   </g>
   <g id="line2d_52">
    <path d="M 133.23257 36.7085 
L 133.23257 21.4465 
" clip-path="url(#p0ce4e5bdce)" style="fill: none; stroke: #000000; stroke-linecap: square"/>
   </g>
   <g id="line2d_53">
    <path d="M 436.274441 311.4245 
L 436.274441 280.9005 
" clip-path="url(#p0ce4e5bdce)" style="fill: none; stroke: #ff7f0e"/>
   </g>
   <g id="line2d_54">
    <path d="M 572.207525 273.2695 
L 572.207525 242.7455 
" clip-path="url(#p0ce4e5bdce)" style="fill: none; stroke: #ff7f0e"/>
   </g>
   <g id="line2d_55">
    <path d="M 226.81817 235.1145 
L 226.81817 204.5905 
" clip-path="url(#p0ce4e5bdce)" style="fill: none; stroke: #ff7f0e"/>
   </g>
   <g id="line2d_56">
    <path d="M 208.744451 196.9595 
L 208.744451 166.4355 
" clip-path="url(#p0ce4e5bdce)" style="fill: none; stroke: #ff7f0e"/>
   </g>
   <g id="line2d_57">
    <path d="M 268.463762 158.8045 
L 268.463762 128.2805 
" clip-path="url(#p0ce4e5bdce)" style="fill: none; stroke: #ff7f0e"/>
   </g>
   <g id="line2d_58">
    <path d="M 138.262796 120.6495 
L 138.262796 90.1255 
" clip-path="url(#p0ce4e5bdce)" style="fill: none; stroke: #ff7f0e"/>
   </g>
   <g id="line2d_59">
    <path d="M 137.502413 82.4945 
L 137.502413 51.9705 
" clip-path="url(#p0ce4e5bdce)" style="fill: none; stroke: #ff7f0e"/>
   </g>
   <g id="line2d_60">
    <path d="M 133.174079 44.3395 
L 133.174079 13.8155 
" clip-path="url(#p0ce4e5bdce)" style="fill: none; stroke: #ff7f0e"/>
   </g>
   <g id="patch_11">
    <path d="M 117.44 315.24 
L 117.44 10 
" style="fill: none; stroke: #000000; stroke-width: 0.8; stroke-linejoin: miter; stroke-linecap: square"/>
   </g>
   <g id="patch_12">
    <path d="M 702.35 315.24 
L 702.35 10 
" style="fill: none; stroke: #000000; stroke-width: 0.8; stroke-linejoin: miter; stroke-linecap: square"/>
   </g>
   <g id="patch_13">
    <path d="M 117.44 315.24 
L 702.35 315.24 
" style="fill: none; stroke: #000000; stroke-width: 0.8; stroke-linejoin: miter; stroke-linecap: square"/>
   </g>
   <g id="patch_14">
    <path d="M 117.44 10 
L 702.35 10 
" style="fill: none; stroke: #000000; stroke-width: 0.8; stroke-linejoin: miter; stroke-linecap: square"/>
   </g>
  </g>
 </g>
 <defs>
  <clipPath id="p0ce4e5bdce">
   <rect x="117.44" y="10" width="584.91" height="305.24"/>
  </clipPath>
 </defs>
</svg>
